<svg xmlns="http://www.w3.org/2000/svg" version="1.1" xmlns:xlink="http://www.w3.org/1999/xlink" xmlns:svgjs="http://svgjs.dev/svgjs" width="100%" height="100%" viewBox="0 0 1000 600"><rect width="1000" height="600" x="0" y="0" fill="#153448"/><g><circle r="166.66666666666666" cx="315.9048411051432" cy="338.12709130647505" fill="#948979" transform="matrix(0.8375869257105871,0,0,0.8375869257105868,0,16.789140357528865)"/><path d="M189.59448056492477 409.3390764575478L189.59448056492477 409.3390764575478Q187.57626477259845 409.3390764575478 186.58268161329934 407.75555329741485Q185.55804898027213 406.2030796110099 185.55804898027213 404.40221013478026L185.55804898027213 404.40221013478026Q185.8064447700969 400.61417433995246 187.48311635141417 400.148432234031Q189.1597879327314 399.7137396018376 191.39535004115442 399.7137396018376L191.39535004115442 399.7137396018376Q198.53672899861678 399.7137396018376 201.45537952905795 397.13663328240557Q204.342980585771 394.55952696297345 205.1192174289734 390.64729327323323Q205.92650374590394 386.735059583493 205.92650374590394 382.51233115647176L205.92650374590394 382.51233115647176L205.92650374590394 293.7418857678416Q205.92650374590394 289.4881078670923 205.1192174289734 285.57587417735203Q204.342980585771 281.6636404876118 201.45537952905795 279.1175836419078Q198.53672899861678 276.5404773224758 191.39535004115442 276.5404773224758L191.39535004115442 276.5404773224758Q189.1597879327314 276.5404773224758 187.48311635141417 276.07473521655425Q185.8064447700969 275.6400425843609 185.55804898027213 271.85200678953305L185.55804898027213 271.85200678953305Q185.55804898027213 270.05113731330346 186.58268161329934 268.4986636268985Q187.57626477259845 266.9151404667656 189.59448056492477 266.9151404667656L189.59448056492477 266.9151404667656Q196.73585952238716 267.1324867828623 203.2251995315595 267.380882572687Q209.7145395407318 267.59822888878375 216.42122586600084 267.59822888878375L216.42122586600084 267.59822888878375L249.95465749234586 267.59822888878375Q254.20843539309521 267.59822888878375 261.0082701395485 268.2502678370738Q267.8391543597299 268.93335625909197 275.539423844298 270.9515720514182Q283.27074280259427 272.9697878437446 290.19477544395994 277.44091206059056Q297.1188080853256 281.9120362774366 301.4967838809873 289.27076155099564Q305.843710202921 296.66053629828275 305.843710202921 307.8383468403978L305.843710202921 307.8383468403978Q305.843710202921 318.33306896049464 301.0310417750659 326.84062476199335Q296.2183733472108 335.31713108976385 288.30075754654604 341.37177846674285Q280.3520922721531 347.39537636999376 270.41626067916195 350.6555711114439Q260.4493796124427 353.8847163791661 250.17200380844255 353.8847163791661L250.17200380844255 353.8847163791661Q245.26618695940317 353.8847163791661 239.459935372249 353.20162795714793Q233.6226343113667 352.5495890088579 227.81638272421253 350.3140269004349L227.81638272421253 350.3140269004349L227.81638272421253 382.51233115647176Q228.0337290403092 386.735059583493 228.71681746232736 390.64729327323323Q229.3999058843455 394.55952696297345 232.4117048359709 397.13663328240557Q235.42350378759633 399.7137396018376 242.34753642896203 399.7137396018376L242.34753642896203 399.7137396018376Q244.80044485348174 399.7137396018376 246.3839680136147 400.148432234031Q247.93644170001954 400.61417433995246 248.1537880161162 404.40221013478026L248.1537880161162 404.40221013478026Q248.1537880161162 406.2030796110099 247.1602048568171 407.75555329741485Q246.166621697518 409.3390764575478 244.14840590519168 409.3390764575478L244.14840590519168 409.3390764575478Q229.83459851653885 408.6559880355296 216.20387954990414 408.6559880355296L216.20387954990414 408.6559880355296Q209.4971932246351 408.6559880355296 203.1320511103752 408.78018593044203Q196.73585952238716 408.87333435162634 189.59448056492477 409.3390764575478ZM243.68266379927022 343.82468689126256L243.68266379927022 343.82468689126256Q248.83687643813437 343.82468689126256 255.2020185523943 342.1480153099453Q261.5671606666542 340.4713437286281 267.4976101487208 336.55911003888775Q273.4280596307874 332.64687634914753 277.21609542561526 325.8159921289662Q281.03518069417123 319.0161573825128 281.03518069417123 308.49038578868783L281.03518069417123 308.49038578868783Q281.03518069417123 297.0952289304762 276.56405647732527 290.51274050011955Q272.09293226047924 283.8992025960348 265.4793943563945 280.79425522322504Q258.8969059260379 277.6582583766873 252.40756591686556 276.7578236385724Q245.91822590769323 275.85738890045764 241.9128437967687 275.85738890045764L241.9128437967687 275.85738890045764Q236.54128484180785 275.85738890045764 233.40528799527002 276.9751699546691Q230.2692911487322 278.0929510088806 229.0583616733364 281.7878383825242Q227.81638272421253 285.4827257561677 227.81638272421253 293.0898468195516L227.81638272421253 293.0898468195516L227.81638272421253 341.37177846674285Q230.0519448326355 342.2722132048576 234.30572273338484 343.0484500480601Q238.55950063413417 343.82468689126256 243.68266379927022 343.82468689126256ZM391.2297629551885 413.1271122523756L391.2297629551885 413.1271122523756Q372.4758808234177 413.1271122523756 356.8269460644567 404.18486381868365Q341.17801130549566 395.2426153849916 331.6768723446979 378.69324588791574Q322.17573338390014 362.14387639084 322.17573338390014 339.13621635831987L322.17573338390014 339.13621635831987Q322.17573338390014 316.3148531681684 331.1179818175921 299.23764261771487Q340.06023025128417 282.12938259353325 356.48540185344757 272.62824363273546Q372.91057345561103 263.12710467193773 395.2661945398411 263.12710467193773L395.2661945398411 263.12710467193773Q403.3080082354183 263.12710467193773 411.90871245810126 264.6795783583426Q420.5404661545123 266.26310151847554 427.89919142807133 269.92693941839104Q435.2889661753585 273.6218267920346 439.85323881338877 279.67647416901355Q444.44856092514726 285.70007207226445 444.44856092514726 294.6423205059565L444.44856092514726 294.6423205059565Q444.6659072412439 304.2676573616666 438.64230933799297 311.5332342140414Q432.587661961014 318.7988110664162 421.65824720872376 318.7988110664162L421.65824720872376 318.7988110664162Q414.9515608834548 318.7988110664162 412.157108247926 315.5386163249659Q409.36265561239725 312.30947105724385 409.58000192849397 310.7259478971108L409.58000192849397 310.7259478971108Q409.58000192849397 310.07390894882076 412.3744545640227 308.3972373675035Q415.1689071995514 306.7205657861863 417.9633598350802 303.2430247286394Q420.75781247060894 299.7965331448206 420.75781247060894 293.95923208393833L420.75781247060894 293.95923208393833Q420.75781247060894 283.8992025960348 414.05112614533994 277.9998025876963Q407.34443982007093 272.0693531056297 395.0488482237444 272.0693531056297L395.0488482237444 272.0693531056297Q381.6354755732064 272.0693531056297 371.0165555581972 279.67647416901355Q360.3976355431879 287.25254575866927 354.3429881662089 301.9078973583312Q348.319390262958 316.5632489579931 348.319390262958 337.80108898801166L348.319390262958 337.80108898801166Q348.319390262958 355.68558585539574 354.684532377218 370.30988798132955Q361.0496744914779 384.96523958099147 372.569029244602 393.5659438036744Q384.08838399772605 402.1666480263573 399.3026261244937 402.1666480263573L399.3026261244937 402.1666480263573Q411.34982193099546 402.1666480263573 419.9815756274065 397.13663328240557Q428.5822798500895 392.10661853845374 435.50631249145516 380.9288079963387L435.50631249145516 380.9288079963387Q437.5245282837815 377.1407722015109 442.6476914489175 380.2767690480488L442.6476914489175 380.2767690480488Q444.6659072412439 381.6118964183569 445.78368829545536 383.50591431577084Q446.90146934966685 385.3999322131848 445.34899566326203 387.41814800551106L445.34899566326203 387.41814800551106Q436.8414398617634 398.16126591543275 429.2343187983795 403.6259732915779Q421.65824720872376 409.09068066772295 412.71599877503184 411.1088964600493Q403.7737503413398 413.1271122523756 391.2297629551885 413.1271122523756Z " fill="#153448" transform="matrix(0.8375869257105871,0,0,0.8375869257105868,0,16.789140357528865)"/><path d="M569.9535700703865 411.3276610443804L569.9535700703865 411.3276610443804Q567.9292027720437 411.3276610443804 567.1419488226882 409.8937342080542Q566.3265786608556 408.48792358420496 566.3265786608556 406.85718326053995L566.3265786608556 406.85718326053995Q566.5233921481945 403.42700533834784 567.9292027720437 403.00526215119316Q569.3631296083698 402.6116351765154 571.3874969067126 402.6116351765154L571.3874969067126 402.6116351765154Q577.8542257764191 402.6116351765154 580.3846848993476 400.27798954092566Q582.9151440222761 397.94434390533604 583.5337006967698 394.401701133236Q584.1241411587864 390.859058361136 584.1241411587864 387.03525346426625L584.1241411587864 387.03525346426625L584.5458843459412 306.6510019925689Q584.5458843459412 297.14772217534835 581.312519911088 294.5047982025119Q578.051039263758 291.88999044215234 570.9657537195579 290.4560636058261L570.9657537195579 290.4560636058261Q567.9292027720437 289.8656231438095 566.9170191228723 289.3595313192238Q565.9048354737008 288.85343949463805 565.9048354737008 285.81688854712377L565.9048354737008 285.81688854712377Q565.9048354737008 282.35859441245475 568.3509459591984 282.0493160752079Q570.7689402322189 281.7681539504381 574.0023046670722 281.7681539504381L574.0023046670722 281.7681539504381Q585.3612545077738 281.7681539504381 592.3340752020658 283.5675915489651Q599.3068958963578 285.39514535996904 604.6770924794617 290.0624366311484Q610.0472890625656 294.7016116898508 616.3172044449332 303.2208240703769L616.3172044449332 303.2208240703769L671.7904916620225 376.09804681071944L672.4090483365162 376.09804681071944L671.9873051493614 306.6510019925689Q671.9873051493614 302.79908088322213 671.3968646873448 299.2564381111222Q670.7783080128511 295.7137953390221 668.2478488899226 293.4082659159095Q665.717389766994 291.0746202803198 659.2506608972876 291.0746202803198L659.2506608972876 291.0746202803198Q657.2262935989448 291.0746202803198 655.7923667626187 290.652877093165Q654.3865561387695 290.2592501184872 653.9648129516147 286.8290721962952L653.9648129516147 286.8290721962952Q653.9648129516147 285.19833187263015 654.8926479633551 283.792521248781Q655.7923667626187 282.35859441245475 657.6199205736226 282.35859441245475L657.6199205736226 282.35859441245475Q662.062282144986 282.55540789979364 664.8176709677306 282.6678727497016Q667.544943577998 282.78033759960954 670.2722161882654 282.8646862370405Q672.9994887985329 282.9771510869484 677.0482233952185 282.9771510869484L677.0482233952185 282.9771510869484Q681.0969579919042 282.9771510869484 683.7398819647408 282.8646862370405Q686.3546897251002 282.78033759960954 689.1100785478448 282.6678727497016Q691.8373511581121 282.55540789979364 696.0828992421367 282.35859441245475L696.0828992421367 282.35859441245475Q698.1072665404796 282.35859441245475 698.9226367023122 283.792521248781Q699.7380068641446 285.19833187263015 699.7380068641446 286.8290721962952L699.7380068641446 286.8290721962952Q699.5130771643288 290.2592501184872 698.2197313903874 290.652877093165Q696.8982694039693 291.0746202803198 694.6770886182875 291.0746202803198L694.6770886182875 291.0746202803198Q688.3790570234431 291.0746202803198 685.7642492630836 293.4082659159095Q683.1213252902471 295.7137953390221 682.6152334656614 299.2564381111222Q682.1091416410757 302.79908088322213 681.9123281537368 306.6510019925689L681.9123281537368 306.6510019925689L681.518701179059 408.68473707154385Q681.2937714792431 410.315477395209 679.5786825181472 410.8215692197947Q677.8635935570511 411.3276610443804 676.4577829332019 411.3276610443804L676.4577829332019 411.3276610443804Q672.6058618238551 411.3276610443804 670.5814945255122 408.68473707154385L670.5814945255122 408.68473707154385L594.2459776505007 306.6510019925689L593.655537188484 306.6510019925689L594.0491641631618 387.03525346426625Q594.2459776505007 390.859058361136 594.7520694750864 394.401701133236Q595.2581612996721 397.94434390533604 597.9010852725086 400.27798954092566Q600.544009245345 402.6116351765154 606.8139246277126 402.6116351765154L606.8139246277126 402.6116351765154Q609.0351054133943 402.6116351765154 610.4409160372434 403.00526215119316Q611.8748428735696 403.42700533834784 612.0716563609085 406.85718326053995L612.0716563609085 406.85718326053995Q612.0716563609085 408.48792358420496 611.1719375616451 409.8937342080542Q610.2441025499045 411.3276610443804 608.4165487389006 411.3276610443804L608.4165487389006 411.3276610443804Q604.171000654876 411.1027313445645 601.2469145572697 411.0183827071336Q598.2947122471863 410.90591785722563 595.5674396369188 410.8215692197947Q592.8401670266514 410.70910436988675 588.7914324299658 410.70910436988675L588.7914324299658 410.70910436988675Q584.7426978332801 410.70910436988675 582.2122387103516 410.8215692197947Q579.681779587423 410.90591785722563 577.0388556145865 411.0183827071336Q574.424047854227 411.1027313445645 569.9535700703865 411.3276610443804ZM714.4990184145612 411.3276610443804L714.4990184145612 411.3276610443804Q712.8963943033732 411.3276610443804 712.0810241415406 410.00619905796214Q711.2656539797081 408.68473707154385 711.2656539797081 407.27892644769463L711.2656539797081 407.27892644769463Q711.462467467047 404.2423755001804 712.7839294534652 403.93309716293356Q714.1053914398834 403.6238188256867 715.9329452508874 403.6238188256867L715.9329452508874 403.6238188256867Q721.5843039587612 403.6238188256867 723.7211361070121 401.7119163772519Q725.8298520427858 399.77189771633994 726.1391303800326 396.5385332814868Q726.4484087172794 393.3051688466336 726.4484087172794 389.8468747119646L726.4484087172794 389.8468747119646L726.4484087172794 291.0746202803198Q726.4484087172794 287.4195126583119 726.1391303800326 284.29861307336665Q725.8298520427858 281.1495972759444 723.805484744443 279.2376948275096Q721.7811174461001 277.2976761665976 716.1297587382263 277.2976761665976L716.1297587382263 277.2976761665976Q714.3022049272223 277.2976761665976 712.7839294534652 276.7915843420119Q711.2656539797081 276.2854925174262 711.2656539797081 273.24894156991195L711.2656539797081 273.24894156991195Q711.2656539797081 270.21239062239766 714.4990184145612 269.621950160381L714.4990184145612 269.621950160381Q723.805484744443 268.1880233240548 728.7820543528692 266.7822127002056Q733.7305077488184 265.3482858638794 736.3734317216548 264.25175357727704Q738.9882394820144 263.1271050781977 741.0126067803571 263.1271050781977L741.0126067803571 263.1271050781977Q742.6433471040223 263.1271050781977 743.7679956031017 263.8300103901223Q744.8645278897039 264.56103191452394 744.8645278897039 266.9790261875445L744.8645278897039 266.9790261875445L744.8645278897039 332.15240670919343L745.2862710768587 332.15240670919343Q749.3350056735445 328.32860181232365 753.580553757569 324.7859590402236Q757.8261018415936 321.24331626812364 763.5899253993753 318.909670632534Q769.3537489571571 316.5760249969443 777.8729613376831 316.5760249969443L777.8729613376831 316.5760249969443Q791.6217892389284 316.5760249969443 799.7192584322997 324.8703076776545Q807.8167276256712 333.1645903583649 807.8167276256712 346.74472098474814L807.8167276256712 346.74472098474814L807.8167276256712 389.8468747119646Q807.8167276256712 393.3051688466336 808.1260059629179 396.5385332814868Q808.4352843001648 399.77189771633994 810.5721164484156 401.7119163772519Q812.6808323841894 403.6238188256867 818.1634938172012 403.6238188256867L818.1634938172012 403.6238188256867Q820.1878611155441 403.6238188256867 821.3968582520545 403.93309716293356Q822.6058553885647 404.2423755001804 822.8026688759036 407.27892644769463L822.8026688759036 407.27892644769463Q822.8026688759036 408.68473707154385 822.0997635639791 410.00619905796214Q821.3968582520545 411.3276610443804 819.7661179283893 411.3276610443804L819.7661179283893 411.3276610443804Q813.8898295206997 410.90591785722563 808.8289112748427 410.8215692197947Q803.7679930289854 410.70910436988675 798.5102612957895 410.70910436988675L798.5102612957895 410.70910436988675Q793.0557160752545 410.70910436988675 788.1916113167364 410.8215692197947Q783.327506558218 410.90591785722563 777.4512181505285 411.3276610443804L777.4512181505285 411.3276610443804Q775.8485940393404 411.3276610443804 775.0332238775078 410.00619905796214Q774.2178537156752 408.68473707154385 774.2178537156752 407.27892644769463L774.2178537156752 407.27892644769463Q774.4146672030141 404.2423755001804 775.6517805520015 403.93309716293356Q776.8607776885118 403.6238188256867 778.8851449868546 403.6238188256867L778.8851449868546 403.6238188256867Q784.5365036947284 403.6238188256867 786.6733358429792 401.7119163772519Q788.81016799123 399.77189771633994 789.006981478569 396.5385332814868Q789.2037949659077 393.3051688466336 789.2037949659077 389.8468747119646L789.2037949659077 389.8468747119646L789.2037949659077 346.941534472087Q789.2037949659077 336.8196979803728 783.1306930708791 332.2648715591014Q777.0575911758507 327.71004513783 769.9723056316507 327.71004513783L769.9723056316507 327.71004513783Q763.0838335747897 327.71004513783 757.8261018415936 330.2405042607585Q752.5683701083975 332.7709633836871 749.3350056735445 336.0043278185402Q746.0735250262143 339.23769225339333 744.8645278897039 341.683802738891L744.8645278897039 341.683802738891L744.8645278897039 389.8468747119646Q744.8645278897039 393.3051688466336 745.1738062269508 396.5385332814868Q745.4830845641976 399.77189771633994 747.5918004999714 401.7119163772519Q749.7286326482223 403.6238188256867 755.1831778687571 403.6238188256867L755.1831778687571 403.6238188256867Q757.2075451671 403.6238188256867 758.4446585160873 403.93309716293356Q759.6536556525976 404.2423755001804 759.8504691399364 407.27892644769463L759.8504691399364 407.27892644769463Q759.8504691399364 408.68473707154385 759.1475638280118 410.00619905796214Q758.4446585160873 411.3276610443804 756.8139181924222 411.3276610443804L756.8139181924222 411.3276610443804Q750.9376297847325 410.90591785722563 745.8767115388754 410.8215692197947Q740.8157932930183 410.70910436988675 735.5580615598222 410.70910436988675L735.5580615598222 410.70910436988675Q730.1035163392874 410.70910436988675 725.2394115807691 410.8215692197947Q720.3753068222509 410.90591785722563 714.4990184145612 411.3276610443804ZM859.8598369205685 413.1270986429073L859.8598369205685 413.1270986429073Q847.5168196431727 413.1270986429073 840.1222557617258 406.0418130987074Q832.7276918802789 398.9565275545074 832.7276918802789 389.05962076260903L832.7276918802789 389.05962076260903Q832.7276918802789 378.712854571079 838.0978884633829 372.8646823758663Q843.4680850464869 366.98839396817664 852.2684595517829 364.1486565080012Q861.0688340570788 361.30891904782584 871.49994888604 360.2967353986544Q881.931063715001 359.28455174948294 891.8279705068993 358.6941112874663L891.8279705068993 358.6941112874663L891.8279705068993 342.69598638806247Q891.8279705068993 333.1645903583649 887.076330598289 327.82250998773793Q882.3246906896787 322.45231340463397 870.9938570614542 322.45231340463397L870.9938570614542 322.45231340463397Q865.3143821411035 322.45231340463397 860.3659287451543 326.07930481416486Q855.3893591367281 329.73441243617276 855.3893591367281 336.6228844930339L855.3893591367281 336.6228844930339Q855.3893591367281 339.856248927887 857.0200994603932 342.0774297135688Q858.6508397840582 344.2986104992506 860.2534638952462 345.5357238482378Q861.8842042189113 346.74472098474814 861.8842042189113 347.1383479594259L861.8842042189113 347.1383479594259Q861.8842042189113 347.9537181212585 859.5505585833217 350.0905502695092Q857.2169129477321 352.19926620528304 853.1681783510463 352.19926620528304L853.1681783510463 352.19926620528304Q846.898262968679 352.19926620528304 843.4680850464869 347.5600911465807Q840.0097909118178 342.89279987540135 840.0097909118178 337.21332495505055L840.0097909118178 337.21332495505055Q840.0097909118178 329.5375989488339 844.7614308204281 325.0671211649934Q849.5411869415155 320.62475959362996 857.0200994603932 318.6003922952872Q864.4990119792709 316.5760249969443 872.2028541979645 316.5760249969443L872.2028541979645 316.5760249969443Q881.3125070405073 316.5760249969443 889.9160680584645 318.79720578262607Q898.5196290764216 321.01838656830773 904.0866391468644 327.3164181631522Q909.6536492173072 333.58633354551966 909.6536492173072 346.12616431025447L909.6536492173072 346.12616431025447L909.6536492173072 393.3051688466336Q909.850462704646 395.3295361449765 910.6658328664786 398.16927360515183Q911.4812030283111 400.98089485285027 913.8148486639009 403.117727001101Q916.1203780870136 405.25455914935185 920.1691126836993 405.25455914935185L920.1691126836993 405.25455914935185Q921.6030395200254 405.25455914935185 922.418409681858 405.7606509739376Q923.2056636312135 406.2667427985233 923.2056636312135 408.48792358420496L923.2056636312135 408.48792358420496Q923.2056636312135 410.315477395209 921.1812963328706 411.3276610443804Q919.1569290345278 412.33984469355175 916.5421212741684 412.7334716682295Q913.8991973013318 413.1270986429073 912.0716434903278 413.1270986429073L912.0716434903278 413.1270986429073Q904.5927309714501 413.1270986429073 898.7164425637604 408.7972019214518Q892.8401541560708 404.4391889875193 891.8279705068993 396.7353467688257L891.8279705068993 396.7353467688257Q887.385608935536 404.83281596219706 878.5852344302399 408.9940154087907Q869.7848599249438 413.1270986429073 859.8598369205685 413.1270986429073ZM866.3265657902749 402.2180082018375L866.3265657902749 402.2180082018375Q873.2150378471359 402.2180082018375 878.9788614049177 398.7597140671685Q884.7426849626994 395.3295361449765 888.2853277347994 389.34078288737885Q891.8279705068993 383.38014584225823 891.8279705068993 376.09804681071944L891.8279705068993 376.09804681071944L891.8279705068993 364.54228348267895Q870.9938570614542 365.9762103190052 862.0810177062502 371.2339420522012Q853.1681783510463 376.4916737853972 853.1681783510463 388.44106408811535L853.1681783510463 388.44106408811535Q853.1681783510463 402.2180082018375 866.3265657902749 402.2180082018375ZM936.1672375831032 411.3276610443804L936.1672375831032 411.3276610443804Q934.761426959254 411.3276610443804 933.8335919475135 410.00619905796214Q932.93387314825 408.68473707154385 932.93387314825 407.27892644769463L932.93387314825 407.27892644769463Q933.3275001229277 404.2423755001804 934.5646134719151 403.93309716293356Q935.7736106084254 403.6238188256867 937.7979779067682 403.6238188256867L937.7979779067682 403.6238188256867Q943.449336614642 403.6238188256867 945.4737039129849 401.7119163772519Q947.4980712113278 399.77189771633994 947.8073495485745 396.5385332814868Q948.1166278858213 393.3051688466336 948.1166278858213 389.8468747119646L948.1166278858213 389.8468747119646L948.1166278858213 343.5113565498949Q948.1166278858213 339.856248927887 947.8073495485745 336.70723313046483Q947.4980712113278 333.58633354551966 945.4737039129849 331.6463148846077Q943.449336614642 329.73441243617276 937.7979779067682 329.73441243617276L937.7979779067682 329.73441243617276Q935.9704240957642 329.73441243617276 934.4521486220071 329.22832061158704Q932.93387314825 328.7222287870014 932.93387314825 325.6856778394871L932.93387314825 325.6856778394871Q932.93387314825 322.64912689197286 936.1672375831032 322.0305702174792L936.1672375831032 322.0305702174792Q945.4737039129849 320.62475959362996 950.450273521411 319.21894896978074Q955.3987269173602 317.7850221334546 957.9291860402888 316.77283848428317Q960.4596451632173 315.7606548351117 962.4840124615602 315.56384134777284L962.4840124615602 315.56384134777284Q964.1147527852253 315.36702786043395 965.2112850718275 316.1823980222665Q966.335933570907 316.96965197162206 966.335933570907 319.4157624571196L966.335933570907 319.4157624571196L966.335933570907 332.15240670919343L966.9544902454007 332.15240670919343Q971.0032248420863 328.32860181232365 975.248772926111 324.7859590402236Q979.4943210101354 321.24331626812364 985.2581445679172 318.909670632534Q991.0219681256989 316.5760249969443 999.541180506225 316.5760249969443L999.541180506225 316.5760249969443Q1013.2900084074703 316.5760249969443 1021.3874776008416 324.8703076776545Q1029.484946794213 333.1645903583649 1029.484946794213 346.74472098474814L1029.484946794213 346.74472098474814L1029.484946794213 389.8468747119646Q1029.484946794213 393.3051688466336 1029.7942251314598 396.5385332814868Q1030.1035034687065 399.77189771633994 1032.2403356169575 401.7119163772519Q1034.3490515527315 403.6238188256867 1040.028526473082 403.6238188256867L1040.028526473082 403.6238188256867Q1041.8560802840861 403.6238188256867 1043.149426058027 403.93309716293356Q1044.4708880444455 404.2423755001804 1044.6677015317846 407.27892644769463L1044.6677015317846 407.27892644769463Q1044.6677015317846 408.68473707154385 1043.880447582429 410.00619905796214Q1043.0650774205965 411.3276610443804 1041.4343370969314 411.3276610443804L1041.4343370969314 411.3276610443804Q1035.5580486892418 410.90591785722563 1030.6095952932924 410.8215692197947Q1025.661141897343 410.70910436988675 1020.1784804643313 410.70910436988675L1020.1784804643313 410.70910436988675Q1014.7239352437965 410.70910436988675 1009.8598304852782 410.8215692197947Q1004.9957257267599 410.90591785722563 999.1194373190702 411.3276610443804L999.1194373190702 411.3276610443804Q997.7136266952211 411.3276610443804 996.8139078959576 410.00619905796214Q995.8860728842171 408.68473707154385 995.8860728842171 407.27892644769463L995.8860728842171 407.27892644769463Q996.0828863715561 404.2423755001804 997.4043483579743 403.93309716293356Q998.7258103443926 403.6238188256867 1000.5533641553965 403.6238188256867L1000.5533641553965 403.6238188256867Q1006.2047228632703 403.6238188256867 1008.3415550115211 401.7119163772519Q1010.4783871597718 399.77189771633994 1010.7595492845418 396.5385332814868Q1011.0688276217885 393.3051688466336 1011.0688276217885 389.8468747119646L1011.0688276217885 389.8468747119646L1011.0688276217885 346.941534472087Q1011.0688276217885 340.2498759025648 1008.1447415241822 336.0043278185402Q1005.1925392140989 331.75877973451566 1000.7501776427354 329.73441243617276Q996.3078160713719 327.71004513783 991.6405248001926 327.71004513783L991.6405248001926 327.71004513783Q984.7520527433315 327.71004513783 979.4943210101354 330.2405042607585Q974.2365892769395 332.7709633836871 971.0032248420863 336.0043278185402Q967.7417441947562 339.23769225339333 966.5327470582458 341.683802738891L966.5327470582458 341.683802738891L966.5327470582458 389.8468747119646Q966.5327470582458 393.3051688466336 966.8420253954927 396.5385332814868Q967.1513037327394 399.77189771633994 969.2600196685133 401.7119163772519Q971.3968518167642 403.6238188256867 977.0763267371148 403.6238188256867L977.0763267371148 403.6238188256867Q978.8757643356419 403.6238188256867 980.1972263220601 403.93309716293356Q981.5186883084783 404.2423755001804 981.7155017958172 407.27892644769463L981.7155017958172 407.27892644769463Q981.7155017958172 408.68473707154385 980.9001316339846 410.00619905796214Q980.1128776846292 411.3276610443804 978.482137360964 411.3276610443804L978.482137360964 411.3276610443804Q972.6058489532744 410.90591785722563 967.6573955573252 410.8215692197947Q962.680825948899 410.70910436988675 957.226280728364 410.70910436988675L957.226280728364 410.70910436988675Q951.7717355078292 410.70910436988675 946.907630749311 410.8215692197947Q942.0435259907928 410.90591785722563 936.1672375831032 411.3276610443804Z " fill="#ffe67c" transform="matrix(0.8375869257105871,0,0,0.8375869257105868,0,16.789140357528865)"/></g></svg>